<?xml version="1.0" encoding="UTF-8" standalone="no"?>
<!-- Created with Inkscape (http://www.inkscape.org/) -->

<svg
   xmlns:dc="http://purl.org/dc/elements/1.1/"
   xmlns:cc="http://creativecommons.org/ns#"
   xmlns:rdf="http://www.w3.org/1999/02/22-rdf-syntax-ns#"
   xmlns:svg="http://www.w3.org/2000/svg"
   xmlns="http://www.w3.org/2000/svg"
   xmlns:sodipodi="http://sodipodi.sourceforge.net/DTD/sodipodi-0.dtd"
   xmlns:inkscape="http://www.inkscape.org/namespaces/inkscape"
   width="218.25975mm"
   height="134.76277mm"
   viewBox="0 0 773.36132 477.50589"
   id="svg3671"
   version="1.1"
   inkscape:version="0.91 r13725"
   sodipodi:docname="visa.svg"
   inkscape:export-filename="/Users/martinulisesvillafuertebazan/Pictures/visa.png"
   inkscape:export-xdpi="300"
   inkscape:export-ydpi="300">
  <defs
     id="defs3673" />
  <sodipodi:namedview
     id="base"
     pagecolor="#ffffff"
     bordercolor="#666666"
     borderopacity="1.0"
     inkscape:pageopacity="0.0"
     inkscape:pageshadow="2"
     inkscape:zoom="0.81297767"
     inkscape:cx="386.68066"
     inkscape:cy="238.75294"
     inkscape:document-units="px"
     inkscape:current-layer="layer1"
     showgrid="false"
     inkscape:window-width="1280"
     inkscape:window-height="751"
     inkscape:window-x="0"
     inkscape:window-y="0"
     inkscape:window-maximized="1"
     fit-margin-top="0"
     fit-margin-left="0"
     fit-margin-right="0"
     fit-margin-bottom="0" />
  <metadata
     id="metadata3676">
    <rdf:RDF>
      <cc:Work
         rdf:about="">
        <dc:format>image/svg+xml</dc:format>
        <dc:type
           rdf:resource="http://purl.org/dc/dcmitype/StillImage" />
        <dc:title></dc:title>
      </cc:Work>
    </rdf:RDF>
  </metadata>
  <g
     inkscape:label="Capa 1"
     inkscape:groupmode="layer"
     id="layer1"
     transform="translate(9.5234375,-93.441406)">
    <path
       style="color:#000000;font-style:normal;font-variant:normal;font-weight:normal;font-stretch:normal;font-size:medium;line-height:normal;font-family:sans-serif;text-indent:0;text-align:start;text-decoration:none;text-decoration-line:none;text-decoration-style:solid;text-decoration-color:#000000;letter-spacing:normal;word-spacing:normal;text-transform:none;direction:ltr;block-progression:tb;writing-mode:lr-tb;baseline-shift:baseline;text-anchor:start;white-space:normal;clip-rule:nonzero;display:inline;overflow:visible;visibility:visible;opacity:1;isolation:auto;mix-blend-mode:normal;color-interpolation:sRGB;color-interpolation-filters:linearRGB;solid-color:#000000;solid-opacity:1;fill:#000080;fill-opacity:1;fill-rule:nonzero;stroke:none;stroke-width:5.5;stroke-linecap:butt;stroke-linejoin:miter;stroke-miterlimit:4;stroke-dasharray:none;stroke-dashoffset:0;stroke-opacity:1;color-rendering:auto;image-rendering:auto;shape-rendering:auto;text-rendering:auto;enable-background:accumulate"
       d="m -9.5234375,93.441406 0,2.75 0,24.400394 0,141.05859 0,0.0801 0,140.92969 0,0.1289 0,168.15821 773.3613275,0 0,-168.15821 0,-0.1289 0,-140.92969 0,-0.0801 0,-168.208984 -773.3613275,0 z"
       id="path4156"
       inkscape:connector-curvature="0" />
    <path
       style="color:#000000;font-style:normal;font-variant:normal;font-weight:normal;font-stretch:normal;font-size:medium;line-height:normal;font-family:sans-serif;text-indent:0;text-align:start;text-decoration:none;text-decoration-line:none;text-decoration-style:solid;text-decoration-color:#000000;letter-spacing:normal;word-spacing:normal;text-transform:none;direction:ltr;block-progression:tb;writing-mode:lr-tb;baseline-shift:baseline;text-anchor:start;white-space:normal;clip-rule:nonzero;display:inline;overflow:visible;visibility:visible;opacity:1;isolation:auto;mix-blend-mode:normal;color-interpolation:sRGB;color-interpolation-filters:linearRGB;solid-color:#000000;solid-opacity:1;fill:#ffffff;fill-opacity:1;fill-rule:nonzero;stroke:none;stroke-width:5.5;stroke-linecap:butt;stroke-linejoin:miter;stroke-miterlimit:4;stroke-dasharray:none;stroke-dashoffset:0;stroke-opacity:1;color-rendering:auto;image-rendering:auto;shape-rendering:auto;text-rendering:auto;enable-background:accumulate"
       d="m -21.650391,-21.650391 0,21.650391 0,141.05859 0,0.0801 0,140.92969 0,0.12891 0,162.6582 762.361331,0 0,-162.6582 0,-0.12891 0,-140.92969 0,-0.0801 0,-162.708981 -762.361331,0 z"
       transform="translate(17.627167,120.59122)"
       id="path4154"
       inkscape:connector-curvature="0" />
    <rect
       y="402.65878"
       x="17.627264"
       height="141.13802"
       width="719.0611"
       id="rect4450"
       style="opacity:1;fill:#d4aa00;fill-opacity:1;stroke:none;stroke-width:1;stroke-linejoin:miter;stroke-miterlimit:4;stroke-dasharray:none" />
    <rect
       y="120.59122"
       x="17.627396"
       height="141.13802"
       width="719.0611"
       id="rect4452"
       style="opacity:1;fill:#000080;fill-opacity:1;stroke:none;stroke-width:1;stroke-linejoin:miter;stroke-miterlimit:4;stroke-dasharray:none" />
    <path
       id="polygon4383"
       style="clip-rule:evenodd;fill:#000080;fill-rule:evenodd"
       d="m 503.40022,341.67188 0.0485,0.37419 -17.2655,0.051 15.31075,-25.96504 0,0 0,0 z m -168.42678,45.57369 c -1.03854,-1.15175 -1.03854,-3.23896 0.006,-6.26165 l 0,0 35.35615,-99.24351 2.05717,-2.25245 -0.0455,-0.37419 -38.59983,-0.0996 0,0 c 0,0.1142 -0.0655,0.18467 -0.19916,0.20654 0.41542,2.58047 0.0766,5.36503 -1.00724,8.35371 l 0,0 -32.06975,92.3331 0,0 c -1.19504,3.43334 -2.7059,5.89474 -4.52409,7.36963 l 0,0 39.0266,-0.0316 0,0 0,0 z m 96.01868,-9.43014 c 16.05622,-16.78761 14.93232,-32.37975 -3.38878,-46.76672 -0.828,-0.64633 -6.14024,-4.14526 -15.93957,-10.48224 -8.8746,-5.74407 -12.73288,-8.87854 -12.89222,-13.70903 -0.20486,-6.69415 8.46488,-12.10051 23.30046,-9.79702 8.22016,1.28051 16.24401,5.25811 24.08575,11.9377 l 0,0 0.88491,-0.085 4.26231,-22.88403 0,0 c -7.42348,-5.04187 -14.27791,-8.26868 -20.5291,-9.67553 -24.69182,-5.5497 -66.58653,3.59613 -65.52522,36.75098 0.36136,11.09942 6.41909,19.37539 18.19877,24.83035 l 0,0 3.00182,1.38498 0,0 c 9.03109,4.17928 21.95176,10.67663 21.57904,20.77252 -0.52925,14.26789 -31.24749,11.82349 -48.20852,-0.48353 l 0,0 -7.19585,-5.6542 -0.50649,23.30197 0,0 c -0.0996,3.46249 9.03679,8.33185 14.09296,10.17609 21.93469,7.98681 49.07632,6.79863 64.77973,-9.61724 l 0,0 0,0 0,0 z m 107.23501,9.23088 -0.88776,-6.91768 -6.57556,-100.9371 -33.87089,0.0415 -0.40687,2.7554 -63.65869,105.33506 30.27153,-0.0899 0,0 c -1.02148,-2.3302 -1.14952,-4.449 -0.38411,-6.35156 l 0,0 12.72717,-20.62429 30.1378,-0.50784 0,0 c -0.006,0.50055 0.18209,6.61884 0.57761,18.35971 0.1451,4.00191 -0.0768,7.02704 -0.66583,9.06807 l 0,0 32.7356,-0.13119 0,0 0,0 z m -243.15382,-107.50976 0.66582,3.53055 -44.18807,67.72146 0,0 c -0.16789,-0.12879 -0.36421,-0.17009 -0.58329,-0.13607 l 0,0 -0.27883,-70.8778 -48.00366,0 0,0 c 0.56052,0.56371 2.09986,1.83937 4.61512,3.8148 2.723,2.1334 4.82286,4.28621 6.29959,6.43902 2.45267,3.58399 3.68186,6.09156 3.68754,7.51543 l 0,0 0.2703,90.16329 34.80415,0.25026 75.46683,-108.3602 -32.7555,-0.0608 0,0 0,0 z"
       inkscape:connector-curvature="0" />
    <g
       style="font-style:normal;font-weight:normal;font-size:235.85444641px;line-height:125%;font-family:Sans;-inkscape-font-specification:Sans;text-align:center;letter-spacing:0px;word-spacing:0px;text-anchor:middle;fill:#ffffff;fill-opacity:1;stroke:none;stroke-width:1px;stroke-linecap:butt;stroke-linejoin:miter;stroke-opacity:1"
       id="text3353" />
    <g
       style="font-style:normal;font-weight:normal;font-size:130.31404114px;line-height:125%;font-family:Sans;-inkscape-font-specification:Sans;text-align:center;letter-spacing:0px;word-spacing:0px;text-anchor:middle;fill:#ffffff;fill-opacity:1;stroke:none;stroke-width:1px;stroke-linecap:butt;stroke-linejoin:miter;stroke-opacity:1"
       id="text3878" />
  </g>
</svg>
